<?xml version="1.0" encoding="iso-8859-1"?>
<!-- Generator: Adobe Illustrator 19.0.0, SVG Export Plug-In . SVG Version: 6.00 Build 0)  -->
<svg version="1.1" id="Capa_1" xmlns="http://www.w3.org/2000/svg" xmlns:xlink="http://www.w3.org/1999/xlink" x="0px" y="0px"
	 viewBox="0 0 512 512" style="enable-background:new 0 0 512 512;" xml:space="preserve">
<path style="fill:#CAE8F9;" d="M480.978,197.5l-16.199,162.7l-33.301,33.3c-26.699-20.7-33.6-23.101-62.098-3.9
	c-2.701,1.8-5.402,3.3-8.401,4.501c-16.199,9.3-33.9,13.499-51.599,13.499l-42.001-42.599L300.978,196c0-8.401,6.599-15,15-15h150
	c4.2,0,8.401,1.8,11.1,4.799C480.077,189.099,481.278,193.299,480.978,197.5z"/>
<path style="fill:#A4D9F5;" d="M480.978,197.5l-16.199,162.7l-33.301,33.3c-26.699-20.7-33.6-23.101-62.098-3.9
	c-2.701,1.8-5.402,3.3-8.401,4.501V181h105c4.2,0,8.401,1.8,11.1,4.799C480.077,189.099,481.278,193.299,480.978,197.5z"/>
<path style="fill:#15B7BE;" d="M464.778,360.2l-3.301,33.3l-7.798,77.999c-2.401,23.1-21.602,40.501-44.702,40.501H255.978
	c-8.401,0-15-6.601-15-15l20.099-101.1l6.301-30.901c25.8,16.5,59.099,17.1,85.199-0.601c2.701-1.8,5.402-3.3,8.401-4.499
	C393.678,341.6,432.678,342.499,464.778,360.2z"/>
<path style="fill:#0F979B;" d="M464.778,360.2l-3.301,33.3l-7.798,77.999c-2.401,23.1-21.602,40.501-44.702,40.501h-47.999V359.9
	C393.678,341.6,432.678,342.499,464.778,360.2z"/>
<rect x="60.978" y="211" style="fill:#57555C;" width="240" height="211"/>
<rect x="180.98" y="211" style="fill:#3C3A41;" width="120" height="211"/>
<path style="fill:#CAE8F9;" d="M225.978,272h-90c-8.401,0-15,6.599-15,15v60c0,8.399,6.599,15,15,15h90c8.401,0,15-6.601,15-15v-60
	C240.978,278.599,234.379,272,225.978,272z"/>
<g>
	<path style="fill:#A4D9F5;" d="M225.978,362h-45v-90h45c8.401,0,15,6.599,15,15v60C240.978,355.399,234.379,362,225.978,362z"/>
	<circle style="fill:#A4D9F5;" cx="405.98" cy="407" r="15"/>
</g>
<path style="fill:#15B7BE;" d="M225.978,60h-90c-8.401,0-15,6.599-15,15v61c0,8.399,6.599,15,15,15h90c8.401,0,15-6.601,15-15V75
	C240.978,66.599,234.379,60,225.978,60z"/>
<path style="fill:#57555C;" d="M227.978,0h-90c-24.901,0-45,20.099-45,45v30c0,8.399,6.599,15,15,15h150c8.401,0,15-6.601,15-15V45
	C272.978,20.099,252.878,0,227.978,0z"/>
<path style="fill:#0F979B;" d="M225.978,151h-45V60h45c8.401,0,15,6.599,15,15v61C240.978,144.399,234.379,151,225.978,151z"/>
<path style="fill:#3C3A41;" d="M257.978,90h-77V0h47c24.901,0,45,20.099,45,45v30C272.978,83.399,266.379,90,257.978,90z"/>
<path style="fill:#1DE8F1;" d="M330.978,196c0,24.899-20.099,45-45,45h-210c-24.901,0-45-20.101-45-45
	c0-20.7,8.401-39.6,21.899-53.101c13.5-13.5,32.401-21.899,53.101-21.899h150C297.378,121,330.978,154.6,330.978,196z"/>
<path style="fill:#1BD9DE;" d="M285.978,241h-105V121h75c41.4,0,75,33.6,75,75C330.978,220.899,310.878,241,285.978,241z"/>
<path style="fill:#1DE8F1;" d="M330.978,437c0,20.7-8.401,39.6-21.899,53.099c-13.5,13.5-32.401,21.901-53.101,21.901h-150
	c-41.4,0-75-33.6-75-75c0-24.901,20.099-45,45-45h210C310.878,392,330.978,412.099,330.978,437z"/>
<path style="fill:#1BD9DE;" d="M330.978,437c0,20.7-8.401,39.6-21.899,53.099c-13.5,13.5-32.401,21.901-53.101,21.901h-75V392h105
	C310.878,392,330.978,412.099,330.978,437z"/>
<g>
</g>
<g>
</g>
<g>
</g>
<g>
</g>
<g>
</g>
<g>
</g>
<g>
</g>
<g>
</g>
<g>
</g>
<g>
</g>
<g>
</g>
<g>
</g>
<g>
</g>
<g>
</g>
<g>
</g>
</svg>
