<svg height="512pt" viewBox="0 -96 512 511" width="512pt" xmlns="http://www.w3.org/2000/svg"><path d="m217.539062 62.757812-16.109374-20.167968c-8.203126-10.265625-6.527344-25.242188 3.742187-33.449219l4.304687-3.4375c10.269532-8.199219 25.242188-6.527344 33.445313 3.742187l16.109375 20.164063c8.203125 10.269531 6.53125 25.246094-3.742188 33.449219l-4.304687 3.4375c-10.265625 8.203125-25.238281 6.527344-33.445313-3.738282zm0 0" fill="#fedfc5"/><path d="m259.035156 29.613281-16.109375-20.167969c-6.476562-8.101562-17.15625-10.828124-26.425781-7.597656 4.097656 1.421875 7.863281 3.960938 10.769531 7.597656l16.113281 20.167969c8.203126 10.265625 6.527344 25.242188-3.742187 33.441407l-4.304687 3.441406c-2.164063 1.726562-4.546876 2.992187-7.027344 3.855468 7.464844 2.59375 16.050781 1.4375 22.679687-3.855468l4.304688-3.441406c10.269531-8.199219 11.945312-23.175782 3.742187-33.441407zm0 0" fill="#fecbaa"/><path d="m489.535156 292.191406h-37.175781l-11.238281-30.367187-17.507813-47.3125c-1.171875-3.164063-3.992187-5.425781-7.332031-5.878907l-47.910156-6.488281-10.867188-1.46875-3.054687 22.636719-10.886719 80.617188h-46.953125v-103.964844l17.191406-18.535156 50.511719-32.054688.089844.023438.03125-.023438v.023438l33.507812 7.800781 56.15625 13.078125c3.339844.78125 5.960938 3.359375 6.785156 6.691406zm0 0" fill="#7f7ce8"/><path d="m341.574219 54.691406 27.589843 8.34375 56.496094-31.367187c3.765625-2.085938 8.464844-1.359375 11.421875 1.769531l4.476563 4.742188c3.613281 3.824218 3.386718 9.871093-.5 13.417968l-53.195313 48.554688-56.695312-17.183594zm0 0" fill="#fedfc5"/><path d="m441.558594 38.179688-4.480469-4.742188c-2.953125-3.128906-7.65625-3.855469-11.417969-1.765625l-4.726562 2.625 3.667968 3.882813c3.613282 3.828124 3.386719 9.871093-.5 13.421874l-48.96875 44.691407 12.730469 3.859375 53.195313-48.550782c3.886718-3.550781 4.113281-9.59375.5-13.421874zm0 0" fill="#fecbaa"/><path d="m512 262.429688v57.261718h-24.757812v-38.914062l3.199218-3.78125 15.214844-17.960938c2.394531-2.828125 6.34375-.71875 6.34375 3.394532zm0 0" fill="#4f7693"/><path d="m397.941406 157.199219-29.570312 44.945312-10.867188-1.46875-3.054687 22.636719-53.039063 80.617188h-4.800781v-103.964844l17.191406-18.535156 50.511719-32.054688.089844.023438.03125-.023438v.023438zm0 0" fill="#6666d3"/><path d="m63.191406 287.015625-15.261718 2-12.433594-2c-14.101563 0-25.53125-11.429687-25.53125-25.53125v-5.90625c0-14.101563 11.429687-25.53125 25.53125-25.53125h27.695312c14.097656 0 25.53125 11.429687 25.53125 25.53125v5.90625c-.003906 14.101563-11.433594 25.53125-25.53125 25.53125zm0 0" fill="#fedfc5"/><path d="m88.71875 258.53125h11.132812c4.238282 0 8.398438-1.4375 12.03125-4.15625l13.539063-10.132812c4.328125-3.242188 9.386719-4.648438 14.414063-4.003907l88.507812 11.304688v68.140625h-137.453125l-32.449219-30.3125zm0 0" fill="#badb47"/><path d="m74.660156 287.015625h-52.585937c-12.191407 0-22.074219 9.882813-22.074219 22.074219v6.015625c0 2.527343 2.050781 4.578125 4.578125 4.578125h87.578125c2.53125 0 4.578125-2.050782 4.578125-4.578125v-6.015625c0-12.191406-9.882813-22.074219-22.074219-22.074219zm0 0" fill="#e4f4ff"/><path d="m74.660156 287.015625h-52.585937c-12.191407 0-22.074219 9.882813-22.074219 22.074219v6.015625c0 1.203125.472656 2.285156 1.230469 3.105469 2.992187-8.644532 11.183593-14.863282 20.84375-14.863282h52.585937c9.660156 0 17.851563 6.21875 20.847656 14.863282.753907-.820313 1.226563-1.902344 1.226563-3.105469v-6.015625c0-12.191406-9.882813-22.074219-22.074219-22.074219zm0 0" fill="#bddff4"/><path d="m63.1875 230.046875h-18.914062c14.101562 0 25.535156 11.429687 25.535156 25.527344v5.910156c0 14.097656-11.433594 25.527344-25.535156 25.527344h18.914062c14.101562 0 25.535156-11.429688 25.535156-25.527344v-5.910156c-.003906-14.097657-11.433594-25.527344-25.535156-25.527344zm0 0" fill="#fecbaa"/><path d="m366.859375 155.320312-61.78125 39.207032-6.042969 3.835937-4.398437-6.835937-36.941407-57.46875c-1.460937-2.261719-4.976562-1.066406-4.75 1.617187l1.871094 22.226563 5.027344 59.675781-23.03125 24.835937-9.4375-77.039062-7.167969-58.503906c-1.265625-10.382813 3.042969-20.675782 11.332031-27.046875l43.078126-33.132813c7.15625-5.511718 16.488281-7.320312 25.1875-4.894531l41.773437 12.890625-10.410156 28.285156-16.589844-4.917968c-2.855469-.492188-4.832031 2.785156-3.0625 5.089843zm0 0" fill="#fedfc5"/><path d="m366.859375 155.320312-61.78125 39.207032-10.445313-3-36.941406-57.46875c-1.457031-2.261719-4.972656-1.066406-4.75 1.613281l1.871094 22.226563-27.429688 7.484374-.007812-.007812-7.167969-58.507812c-1.265625-10.382813 3.042969-20.671876 11.332031-27.046876l43.078126-33.132812c7.15625-5.507812 16.488281-7.320312 25.1875-4.890625l41.773437 12.890625-10.410156 28.285156-16.589844-4.917968c-2.855469-.496094-4.832031 2.785156-3.0625 5.085937zm0 0" fill="#25bed3"/><path d="m512 303.382812v16.304688h-24.757812v-38.910156l3.199218-3.78125zm0 0" fill="#43657a"/><path d="m487.242188 280.777344v38.910156h-168.078126l-90.820312-1v-67.144531l24.582031 2.773437 75.984375 8.585938zm0 0" fill="#fd82ac"/><path d="m451.992188 319.683594.371093-27.492188h37.171875l22.460938 27.492188zm0 0" fill="#4f7693"/><path d="m328.910156 262.902344-37.359375 56.785156-57.390625-1v-44.140625l18.765625-20.230469zm0 0" fill="#fd6096"/><path d="m228.34375 251.542969v56.007812h50.242188l142.480468-216.554687-22.519531-23zm0 0" fill="#fd82ac"/><path d="m132.089844 283.085938 39.785156 3.929687v32.667969h-39.785156" fill="#badb47"/><path d="m398.546875 67.996094 22.519531 23 16.253906-20.839844-32.3125-34.128906c-1.839843-1.945313-5.109374-.71875-5.21875 1.953125zm0 0" fill="#4f7693"/><path d="m171.875 287.015625 133.511719 13.671875c4.21875.433594 7.933593 3.632812 9.746093 8.398438l4.03125 10.597656h-147.289062zm0 0" fill="#fedfc5"/><path d="m446.460938 276.25 37.707031-5.640625 5.367187 21.582031h-37.171875zm0 0" fill="#7f7ce8"/></svg>