<svg height="480pt" viewBox="0 -52 480 480" width="480pt" xmlns="http://www.w3.org/2000/svg"><path d="m480 0v176h-136c-17.671875 0-32-14.328125-32-32-.027344-8.824219-7.175781-15.972656-16-16h-16v-80h16c8.824219-.027344 15.972656-7.175781 16-16 0-17.671875 14.328125-32 32-32zm0 0" fill="#bddbff"/><path d="m480 160v16h-136c-17.671875 0-32-14.328125-32-32-.027344-8.824219-7.175781-15.972656-16-16h-16v-80h16v64h16c8.824219.027344 15.972656 7.175781 16 16 0 17.671875 14.328125 32 32 32zm0 0" fill="#9bc9ff"/><path d="m260.632812 355.921875c-30.257812-32.148437-72.453124-50.363281-116.597656-50.339844-44.144531.023438-86.316406 18.289063-116.539062 50.464844l-11.230469 11.953125h255.734375zm0 0" fill="#bddbff"/><path d="m248 40c-8.835938 0-16 7.164062-16 16v64c0 8.835938 7.164062 16 16 16h32v-96zm0 0" fill="#2488ff"/><path d="m456 88c0-17.671875-17.910156-32-40-32s-40 14.328125-40 32 17.910156 32 40 32 40-14.328125 40-32zm0 0" fill="#ffda44"/><path d="m80 336h16v16h-16zm0 0" fill="#9bc9ff"/><path d="m136 336h16v16h-16zm0 0" fill="#9bc9ff"/><path d="m176 272h16v16h-16zm0 0" fill="#bddbff"/><path d="m144 248h16v16h-16zm0 0" fill="#9bc9ff"/><path d="m104 264h16v16h-16zm0 0" fill="#9bc9ff"/><path d="m216 248h16v16h-16zm0 0" fill="#9bc9ff"/><path d="m160 200h16v16h-16zm0 0" fill="#bddbff"/><path d="m208 192h16v16h-16zm0 0" fill="#9bc9ff"/><path d="m176 168h16v16h-16zm0 0" fill="#bddbff"/><path d="m208 152h16v16h-16zm0 0" fill="#bddbff"/><g fill="#9bc9ff"><path d="m184 232h16v16h-16zm0 0"/><path d="m120 224h16v16h-16zm0 0"/><path d="m112 320h16v16h-16zm0 0"/><path d="m200 336h16v16h-16zm0 0"/><path d="m168 328h16v16h-16zm0 0"/></g><path d="m304 360h16v16h-16zm0 0" fill="#57a4ff"/><path d="m0 360h288v16h-288zm0 0" fill="#9bc9ff"/></svg>