<svg height="511pt" viewBox="-135 0 511 511.99959" width="511pt" xmlns="http://www.w3.org/2000/svg"><path d="m134.789062 94.234375v-66.898437c0-7.0625-5.78125-12.847657-12.847656-12.847657h-23.554687c-7.066407 0-12.847657 5.78125-12.847657 12.847657v66.898437zm0 0" fill="#dfebfa"/><path d="m125.535156 15.011719c-1.144531-.332031-2.347656-.523438-3.59375-.523438h-23.554687c-7.066407 0-12.847657 5.78125-12.847657 12.847657v66.898437h30.738282v-66.898437c0-5.816407 3.925781-10.757813 9.257812-12.324219zm0 0" fill="#dfebfa"/><path d="m134.789062 39.125c-2.175781-.976562-4.578124-1.53125-7.117187-1.53125-9.597656 0-17.382813 7.78125-17.382813 17.382812 0 9.597657 7.785157 17.382813 17.382813 17.382813 2.539063 0 4.941406-.558594 7.117187-1.535156zm0 0" fill="#b1dbfc"/><path d="m130.082031 54.972656c0-4.59375 1.792969-8.757812 4.707031-11.867187v-3.980469c-2.175781-.976562-4.578124-1.535156-7.117187-1.535156-9.597656 0-17.382813 7.785156-17.382813 17.382812 0 9.601563 7.785157 17.386719 17.382813 17.386719 2.539063 0 4.941406-.558594 7.117187-1.535156v-3.980469c-2.914062-3.109375-4.707031-7.273438-4.707031-11.871094zm0 0" fill="#8cc9f9"/><path d="m62.246094 119.773438h95.832031c1.382813 0 2.722656.191406 4.011719.515624v-13.714843c0-7.9375-6.121094-14.371094-13.671875-14.371094h-76.507813c-7.550781 0-13.671875 6.433594-13.671875 14.371094v13.714843c1.289063-.324218 2.625-.515624 4.007813-.515624zm0 0" fill="#b1dbfc"/><path d="m88.976562 106.574219c0-7.9375 6.121094-14.371094 13.671876-14.371094h-30.738282c-7.550781 0-13.671875 6.433594-13.671875 14.371094v13.714843c1.285157-.324218 2.625-.515624 4.007813-.515624h26.730468zm0 0" fill="#8cc9f9"/><path d="m53.351562 146.496094h113.621094c2.800782 0 5.550782.238281 8.234375.6875v-10.429688c0-10.117187-7.667969-18.320312-17.128906-18.320312h-95.832031c-9.457032 0-17.125 8.203125-17.125 18.320312v10.429688c2.683594-.449219 5.433594-.6875 8.230468-.6875zm0 0" fill="#8cc9f9"/><path d="m75.863281 136.753906c0-10.117187 7.664063-18.320312 17.125-18.320312h-30.742187c-9.457032 0-17.125 8.203125-17.125 18.320312v10.429688c2.683594-.449219 5.433594-.6875 8.230468-.6875h22.511719zm0 0" fill="#60b8fe"/><g fill="#8cc9f9"><path d="m173.410156 37.671875c-3.105468 0-6.023437-1.914063-7.148437-5.003906-1.441407-3.945313.589843-8.316407 4.539062-9.757813l61.472657-22.445312c3.945312-1.445313 8.316406.589844 9.757812 4.539062 1.441406 3.949219-.589844 8.316406-4.539062 9.757813l-61.472657 22.445312c-.859375.316407-1.742187.464844-2.609375.464844zm0 0"/><path d="m234.882812 104.535156c-.867187 0-1.75-.148437-2.609374-.464844l-61.472657-22.445312c-3.949219-1.4375-5.980469-5.808594-4.539062-9.757812 1.441406-3.949219 5.8125-5.984376 9.757812-4.539063l61.472657 22.445313c3.949218 1.4375 5.980468 5.808593 4.539062 9.757812-1.125 3.085938-4.042969 5.003906-7.148438 5.003906zm0 0"/><path d="m234.882812 59.878906h-61.472656c-4.203125 0-7.609375-3.40625-7.609375-7.609375s3.40625-7.613281 7.609375-7.613281h61.472656c4.203126 0 7.609376 3.410156 7.609376 7.613281s-3.40625 7.609375-7.609376 7.609375zm0 0"/></g><path d="m166.972656 512h-113.621094c-29.1875 0-52.851562-23.664062-52.851562-52.851562v-261.632813c0-29.1875 23.664062-52.851563 52.851562-52.851563h113.621094c29.191406 0 52.855469 23.664063 52.855469 52.851563v261.628906c0 29.191407-23.664063 52.855469-52.855469 52.855469zm0 0" fill="#fee55a"/><path d="m30.945312 459.148438v-261.632813c0-29.1875 23.664063-52.851563 52.851563-52.851563h-30.445313c-29.1875 0-52.851562 23.664063-52.851562 52.851563v261.628906c0 29.191407 23.664062 52.855469 52.851562 52.855469h30.445313c-29.1875 0-52.851563-23.664062-52.851563-52.851562zm0 0" fill="#ffd301"/><path d="m.5 231.351562h219.328125v187.886719h-219.328125zm0 0" fill="#ffd301"/><path d="m.5 231.351562h30.445312v187.886719h-30.445312zm0 0" fill="#ffc20c"/><path d="m136.003906 321.351562-24.472656-35.472656c-.570312-.824218-1.789062-.828125-2.363281-.007812l-24.847657 35.480468c-14.90625 20.988282.097657 50.054688 25.84375 50.054688 25.742188 0 40.746094-29.066406 25.839844-50.054688zm0 0" fill="#23a8fe"/><path d="m114.769531 321.351562 10.695313-15.273437-13.933594-20.199219c-.570312-.824218-1.789062-.828125-2.363281-.007812l-24.847657 35.480468c-14.90625 20.988282.097657 50.054688 25.84375 50.054688 5.660157 0 10.800782-1.410156 15.222657-3.828125-15.671875-8.570313-22.246094-29.855469-10.617188-46.226563zm0 0" fill="#0193fa"/></svg>