<svg height="511pt" viewBox="-18 1 511 511.999" width="511pt" xmlns="http://www.w3.org/2000/svg"><path d="m259.667969 100.992188c-32.324219 41.992187-50.109375 94.71875-50.109375 148.804687v212.789063c0 26.402343 20.546875 47.875 45.804687 47.875h174.21875c25.257813 0 45.808594-21.472657 45.808594-47.875v-212.789063c0-54.085937-17.785156-106.816406-50.113281-148.804687zm0 0" fill="#ffd039"/><path d="m425.246094 100.992188v-74.34375c0-14.695313-11.953125-26.648438-26.648438-26.648438h-112.25c-14.695312 0-26.648437 11.953125-26.648437 26.648438v74.34375zm0 0" fill="#ff1d25"/><path d="m425.277344 100.992188h-32.761719c32.328125 41.992187 50.113281 94.71875 50.113281 148.804687v212.789063c0 26.402343-20.550781 47.875-45.808594 47.875h32.761719c25.257813 0 45.804688-21.472657 45.804688-47.875v-212.789063c0-54.085937-17.785157-106.816406-50.109375-148.804687zm0 0" fill="#ffae47"/><path d="m398.597656 0h-32.757812c14.691406 0 26.648437 11.953125 26.648437 26.648438v74.34375h32.757813v-74.34375c0-14.695313-11.953125-26.648438-26.648438-26.648438zm0 0" fill="#bf161c"/><path d="m188.925781 264.566406c0-26.300781-10.511719-65.574218-26.152343-97.734375-11.402344-23.4375-35.402344-62.75-68.058594-62.75-32.660156 0-56.660156 39.3125-68.0625 62.75-15.644532 32.160157-26.152344 71.433594-26.152344 97.734375 0 40.933594 26.199219 76.769532 64.519531 89.433594l-17.296875 102.40625c-2.339844 13.859375 1.519532 27.964844 10.59375 38.703125 9.074219 10.730469 22.339844 16.890625 36.398438 16.890625 14.054687 0 27.320312-6.15625 36.394531-16.890625 9.074219-10.738281 12.933594-24.84375 10.59375-38.703125l-17.296875-102.40625c38.320312-12.664062 64.519531-48.5 64.519531-89.433594zm0 0" fill="#ffd039"/><path d="m188.925781 264.566406c0-26.300781-10.511719-65.574218-26.152343-97.734375-11.402344-23.4375-35.402344-62.75-68.058594-62.75-6.039063 0-11.777344 1.34375-17.195313 3.683594 23.902344 10.308594 41.570313 39.960937 50.863281 59.066406 15.644532 32.160157 26.152344 71.433594 26.152344 97.734375 0 40.933594-26.199218 76.769532-64.519531 89.433594l17.296875 102.40625c2.339844 13.859375-1.519531 27.964844-10.59375 38.703125-5.226562 6.179687-11.84375 10.832031-19.199219 13.675781 5.417969 2.097656 11.230469 3.214844 17.195313 3.214844 14.054687 0 27.320312-6.15625 36.394531-16.890625 9.074219-10.738281 12.933594-24.84375 10.59375-38.703125l-17.296875-102.40625c38.320312-12.664062 64.519531-48.5 64.519531-89.433594zm0 0" fill="#ffae47"/><g fill="#992228"><path d="m309.710938 100.992188v-35.703126c0-4.140624-3.351563-7.492187-7.492188-7.492187-4.136719 0-7.492188 3.351563-7.492188 7.492187v35.703126zm0 0"/><path d="m349.964844 100.992188v-35.703126c0-4.140624-3.351563-7.492187-7.492188-7.492187s-7.492187 3.351563-7.492187 7.492187v35.703126zm0 0"/><path d="m390.21875 100.992188v-35.703126c0-4.140624-3.355469-7.492187-7.492188-7.492187-4.140624 0-7.496093 3.351563-7.496093 7.492187v35.703126zm0 0"/></g><path d="m475.386719 445.515625v-195.71875c0-14.742187-1.332031-29.382813-3.90625-43.734375h-258.015625c-2.574219 14.351562-3.90625 28.992188-3.90625 43.734375v195.71875zm0 0" fill="#f2f2f2"/><path d="m391.902344 310.613281h-109.019532c-4.140624 0-7.492187-3.351562-7.492187-7.492187 0-4.136719 3.351563-7.492188 7.492187-7.492188h109.019532c4.140625 0 7.492187 3.355469 7.492187 7.492188 0 4.140625-3.355469 7.492187-7.492187 7.492187zm0 0" fill="#494949"/><path d="m391.902344 366.027344h-109.019532c-4.140624 0-7.492187-3.355469-7.492187-7.492188 0-4.140625 3.351563-7.496094 7.492187-7.496094h109.019532c4.140625 0 7.492187 3.355469 7.492187 7.496094 0 4.136719-3.355469 7.492188-7.492187 7.492188zm0 0" fill="#494949"/><path d="m471.480469 206.0625h-32.761719c2.578125 14.351562 3.910156 28.992188 3.910156 43.734375v195.71875h32.757813v-195.71875c0-14.742187-1.332031-29.382813-3.90625-43.734375zm0 0" fill="#ccc"/></svg>