<svg height="512pt" viewBox="-31 0 512 512.00037" width="512pt" xmlns="http://www.w3.org/2000/svg"><path d="m120.015625 0c-66.179687 0-120.015625 53.804688-120.015625 119.945312v270.871094c0 66.140625 53.835938 119.945313 120.015625 119.945313 33.363281 0 64.558594-13.53125 87.171875-37.492188-82.179688-68.359375-64.507812-198.742187 32.84375-243.386719v-109.9375c0-66.140624-53.839844-119.945312-120.015625-119.945312zm0 0" fill="#fecb74"/><path d="m120.015625 0v510.761719c33.363281 0 64.558594-13.53125 87.171875-37.492188-81.15625-67.507812-65.554688-198.261719 32.84375-243.386719v-109.9375c0-66.140624-53.839844-119.945312-120.015625-119.945312zm0 0" fill="#ffa039"/><path d="m240.03125 119.945312c0-66.140624-53.839844-119.945312-120.015625-119.945312s-120.015625 53.804688-120.015625 119.945312v135.9375h239.441406c.816406-7.589843.589844 9.152344.589844-135.9375zm0 0" fill="#e51b8a"/><path d="m240.03125 119.945312c0 145.3125.226562 128.304688-.589844 135.9375h-119.425781v-255.882812c66.175781 0 120.015625 53.804688 120.015625 119.945312zm0 0" fill="#c80060"/><path d="m392.089844 480.429688c65.4375-50.742188 77.441406-144.90625 26.660156-210.464844-24.539062-31.675782-59.925781-51.90625-99.65625-56.953125-95.097656-12.078125-177.144531 67.054687-168.160156 163.054687 10.855468 116.617188 147.355468 177.089844 241.15625 104.363282zm0 0" fill="#eee"/><path d="m418.75 269.964844c-28.765625-37.128906-72.125-58.09375-118.714844-58.167969v300.195313c31.484375.222656 63.71875-9.589844 92.054688-31.5625 66.078125-51.242188 77-145.460938 26.660156-210.464844zm0 0" fill="#dedede"/><path d="m449.496094 376.121094-298.5625-.054688c-.925782-9.882812-.871094-19.925781.203125-30.007812l298.265625.054687c1.023437 9.875 1.0625 19.925781.09375 30.007813zm0 0" fill="#ddd"/><path d="m449.496094 376.125-149.460938-.027344v-30.015625c.097656 0 149.265625.03125 149.359375.03125.957031 9.574219 1.15625 18.976563.101563 30.011719zm0 0" fill="#cecece"/></svg>