<svg height="512pt" viewBox="0 0 512 512" width="512pt" xmlns="http://www.w3.org/2000/svg"><path d="m286 512c-86.019531 0-156-69.980469-156-156v-81c0-8.285156 6.714844-15 15-15s15 6.714844 15 15v81c0 69.476562 56.523438 126 126 126s126-56.523438 126-126v-161c0-8.285156 6.714844-15 15-15s15 6.714844 15 15v161c0 86.019531-69.980469 156-156 156zm0 0" fill="#485959"/><path d="m275 290h-260c-8.285156 0-15-6.714844-15-15v-260c0-8.285156 6.714844-15 15-15h260c8.285156 0 15 6.714844 15 15v260c0 8.285156-6.714844 15-15 15zm0 0" fill="#00d7df"/><path d="m275 0h-130v290h130c8.285156 0 15-6.714844 15-15v-260c0-8.285156-6.714844-15-15-15zm0 0" fill="#00c7ce"/><path d="m145 230c-46.867188 0-85-38.132812-85-85s38.132812-85 85-85 85 38.132812 85 85-38.132812 85-85 85zm0 0" fill="#fc0023"/><path d="m230 145c0-46.867188-38.132812-85-85-85v170c46.867188 0 85-38.132812 85-85zm0 0" fill="#c9001c"/><path d="m427 180c-8.285156 0-15 6.714844-15 15v161c0 69.476562-56.523438 126-126 126v30c86.019531 0 156-69.980469 156-156v-161c0-8.285156-6.714844-15-15-15zm0 0" fill="#3f4a4a"/><path d="m145 90c-30.328125 0-55 24.671875-55 55s24.671875 55 55 55 55-24.671875 55-55-24.671875-55-55-55zm0 0" fill="#e1ebf0"/><path d="m200 145c0-30.328125-24.671875-55-55-55v110c30.328125 0 55-24.671875 55-55zm0 0" fill="#cde1e6"/><path d="m145 160c-8.285156 0-15-6.714844-15-15v-20c0-8.285156 6.714844-15 15-15s15 6.714844 15 15v20c0 8.285156-6.714844 15-15 15zm0 0" fill="#485959"/><path d="m160 145v-20c0-8.285156-6.714844-15-15-15v50c8.285156 0 15-6.714844 15-15zm0 0" fill="#3f4a4a"/><path d="m286 452c-3.820312 0-7.640625-1.449219-10.5625-4.347656l-51.214844-50.789063c-17.589844-17.589843-17.589844-46.136719-.042968-63.683593 16.949218-16.949219 44.171874-17.523438 61.820312-1.722657 17.644531-15.800781 44.867188-15.226562 61.816406 1.722657 17.546875 17.546874 17.546875 46.09375 0 63.640624l-51.253906 50.832032c-2.921875 2.898437-6.742188 4.347656-10.5625 4.347656zm0 0" fill="#fc0023"/><path d="m347.820312 333.179688c-16.953124-16.949219-44.175781-17.523438-61.820312-1.722657v120.542969c3.820312 0 7.640625-1.449219 10.5625-4.347656l51.257812-50.832032c17.542969-17.546874 17.542969-46.09375 0-63.640624zm0 0" fill="#c9001c"/><path d="m427 210c-23.429688 0-45.210938-11.417969-61.339844-32.152344-15.257812-19.617187-23.660156-45.488281-23.660156-72.847656s8.402344-53.230469 23.660156-72.847656c16.128906-20.734375 37.910156-32.152344 61.339844-32.152344s45.210938 11.417969 61.339844 32.152344c15.257812 19.617187 23.660156 45.488281 23.660156 72.847656s-8.402344 53.230469-23.660156 72.847656c-16.128906 20.734375-37.910156 32.152344-61.339844 32.152344zm0 0" fill="#fc0023"/><path d="m488.339844 32.152344c-16.128906-20.734375-37.910156-32.152344-61.339844-32.152344v210c23.429688 0 45.210938-11.417969 61.339844-32.152344 15.257812-19.617187 23.660156-45.488281 23.660156-72.847656s-8.402344-53.230469-23.660156-72.847656zm0 0" fill="#c9001c"/></svg>