<?xml version="1.0"?>
<svg xmlns="http://www.w3.org/2000/svg" id="Layer_1" data-name="Layer 1" viewBox="0 0 512 512" width="512" height="512"><title>Group</title><path d="M496,405.65v44.26H381.19V416.46l.07.07,57.55-55.97,32.84,11.13A35.848,35.848,0,0,1,496,405.65Z" style="fill:#cc7350"/><path d="M456.98,263.32l18.33,88.9-17.54,2.16-19.05-17.22-14.91,18.31-.03-.01-12.42-4.2V330.58c25.07-10.72,42.6-37.71,42.6-66.33v-.1A16.244,16.244,0,0,0,456.98,263.32Z" style="fill:#5f6768"/><path d="M456.98,263.32a16.244,16.244,0,0,1-3.02.83v.1c0,28.62-17.53,55.61-42.6,66.33a59.588,59.588,0,0,1-23.57,4.87H374.73a59.433,59.433,0,0,1-23.58-4.88,67.393,67.393,0,0,1-23.36-16.86,74.475,74.475,0,0,1-19.24-49.46v-.1c-.19-.03-.37-.07-.55-.11a17.03,17.03,0,0,1-13.03-20.72,12.824,12.824,0,0,1,11.47-9.77l-.19-8.48,2.3,2.31a11.455,11.455,0,0,0,13.01,2.24,11.283,11.283,0,0,0,5.35-5.28c1.38-2.87,3.95-5.31,6.91-5.48,12.38-.69,34.44-1.82,56.07-16.92A90.491,90.491,0,0,0,455.3,229.9h.79l-.01,3.65a12.834,12.834,0,0,1,11.47,9.77,17.024,17.024,0,0,1-10.57,20Z" style="fill:#f7caa5"/><path d="M408.37,184.93a95.64,95.64,0,0,1-18.48,17.01c-21.63,15.1-43.69,16.23-56.07,16.92-2.96.17-5.53,2.61-6.91,5.48a11.283,11.283,0,0,1-5.35,5.28,11.455,11.455,0,0,1-13.01-2.24l-2.3-2.31-.08-25.7a75.016,75.016,0,1,1,150.03.46l-.04,10.79c-25.86-5.35-34.94-10.63-46.71-24.77Z" style="fill:#5f6768"/><path d="M456.16,210.62l-.07,19.28h-.79a90.491,90.491,0,0,1-65.41-27.96,95.64,95.64,0,0,0,18.48-17.01l1.08.92C421.22,199.99,430.3,205.27,456.16,210.62Z" style="fill:#494f4f"/><polygon points="423.81 355.47 438.81 360.56 381.26 416.53 381.19 416.46 381.19 381.21 381.26 381.28 411.36 351.26 423.78 355.46 423.81 355.47" style="fill:#e2d574"/><path d="M381.19,381.21l-30.04-29.95V330.57a59.433,59.433,0,0,0,23.58,4.88h13.06a59.588,59.588,0,0,0,23.57-4.87v20.68l-30.1,30.02Z" style="fill:#edb288"/><path d="M381.19,416.46v33.45H319.41v-26.2a48.089,48.089,0,0,0-1.18-11.03c-.15-.65-.31-1.3-.49-1.94-4.56-16.62-17.58-29.6-33.98-34.91l-.51-.17.14-.43a35.33,35.33,0,0,1,7.47-3.54l32.84-11.13Z" style="fill:#e48e66"/><polygon points="381.19 381.21 381.19 416.46 323.7 360.56 339.56 355.19 351.15 351.26 381.19 381.21" style="fill:#f8ec7d"/><path d="M351.15,330.57v20.69l-11.59,3.93v-.01c-5.78-.01-11.47-.41-16.23-.45l-1.13-21.15-20.24,21.37a140.322,140.322,0,0,1-17.42-2.73L308,264.04c.18.04.36.08.55.11v.1a74.475,74.475,0,0,0,19.24,49.46A67.393,67.393,0,0,0,351.15,330.57Z" style="fill:#5f6768"/><path d="M319.41,449.91v23.13H16V423.71a48.089,48.089,0,0,1,1.18-11.03c.15-.65.31-1.3.49-1.94,4.56-16.62,17.58-29.6,33.98-34.91L123.9,352.4a92.1,92.1,0,0,0,87.61,0l71.74,23.26.51.17c16.4,5.31,29.42,18.29,33.98,34.91.18.64.34,1.29.49,1.94a48.089,48.089,0,0,1,1.18,11.03Z" style="fill:#e48e66"/><path d="M211.41,312.74a91.556,91.556,0,0,1-87.41.01,92.419,92.419,0,0,1-14.76-9.99,91.345,91.345,0,0,1-31.52-53.55l-5.09-17.5v-.15a24.715,24.715,0,0,1-19.71-30.22,18.6,18.6,0,0,1,16.55-14.15v.58a13.145,13.145,0,0,0,19.84-10.74l1.63-35.68a296.392,296.392,0,0,0,34.77-.89c56.32,50.19,140.27,46.96,140.27,46.96v-.23a18.62,18.62,0,0,1,16.51,14.15,24.887,24.887,0,0,1,.71,5.9,24.715,24.715,0,0,1-20.42,24.32v.15l-5.09,17.5A91.477,91.477,0,0,1,211.41,312.74Z" style="fill:#f7caa5"/><path d="M265.98,187.19v.23s-83.95,3.23-140.27-46.96a289.762,289.762,0,0,0,52.77-8.84s27.71,35.65,87.5,39.5Z" style="fill:#494f4f"/><path d="M178.48,131.62a289.762,289.762,0,0,1-52.77,8.84,296.392,296.392,0,0,1-34.77.89l-1.63,35.68a13.145,13.145,0,0,1-19.84,10.74V137.22a98.255,98.255,0,1,1,196.51,0v33.9C206.19,167.27,178.48,131.62,178.48,131.62Z" style="fill:#5f6768"/><path d="M211.41,352.37l.1.03a92.1,92.1,0,0,1-87.61,0l.1-.03V312.75a91.556,91.556,0,0,0,87.41-.01Z" style="fill:#edb288"/><path d="M404.79,432.94h-7.16a7,7,0,0,1,0-14h7.16a7,7,0,0,1,0,14Z" style="fill:#f8ec7d"/></svg>
