<svg height="512pt" viewBox="0 -6 512 511" width="512pt" xmlns="http://www.w3.org/2000/svg"><path d="m359.226562 62.816406h60.863282c50.761718 0 91.910156 41.136719 91.910156 91.898438v253.28125c0 50.761718-41.148438 91.910156-91.910156 91.910156h-328.191406c-50.75 0-91.898438-41.148438-91.898438-91.910156v-253.28125c0-50.761719 41.148438-91.898438 91.898438-91.898438zm0 0" fill="#1876a9"/><path d="m91.898438 479.007812c-39.148438 0-71-31.855468-71-71.011718v-253.28125c0-39.152344 31.851562-71 71-71h328.191406c39.15625 0 71.011718 31.847656 71.011718 71v253.28125c0 39.15625-31.855468 71.011718-71.011718 71.011718zm0 0" fill="#4297d0"/><path d="m372.617188 117.117188c0 64.410156-52.214844 116.621093-116.621094 116.621093s-116.617188-52.210937-116.617188-116.621093c0-64.40625 52.210938-116.617188 116.617188-116.617188s116.621094 52.210938 116.621094 116.617188zm0 0" fill="#fcb52f"/><path d="m335.71875 117.117188c0 44.03125-35.691406 79.722656-79.722656 79.722656-44.027344 0-79.722656-35.691406-79.722656-79.722656 0-44.027344 35.695312-79.71875 79.722656-79.71875 44.03125 0 79.722656 35.691406 79.722656 79.71875zm0 0" fill="#87cdd8"/><path d="m256 150.589844c-4.328125 0-7.835938-3.507813-7.835938-7.835938v-59.519531c0-4.328125 3.507813-7.835937 7.835938-7.835937s7.835938 3.507812 7.835938 7.835937v59.519531c0 4.328125-3.507813 7.835938-7.835938 7.835938zm0 0" fill="#3b3d4d"/><path d="m231.695312 101.246094c-2.59375 0-5.136718-1.289063-6.625-3.644532-2.316406-3.65625-1.230468-8.496093 2.425782-10.8125l24.3125-15.398437c2.558594-1.621094 5.824218-1.621094 8.386718 0l24.308594 15.398437c3.65625 2.316407 4.742188 7.15625 2.429688 10.8125-2.316406 3.65625-7.15625 4.746094-10.816406 2.429688l-20.117188-12.742188-20.117188 12.738282c-1.300781.824218-2.753906 1.21875-4.1875 1.21875zm0 0" fill="#3b3d4d"/><path d="m321.667969 162.304688c-14.367188 20.867187-38.429688 34.535156-65.671875 34.535156-27.25 0-51.304688-13.667969-65.679688-34.535156 14.367188-20.863282 38.429688-34.53125 65.679688-34.53125s51.304687 13.667968 65.671875 34.53125zm0 0" fill="#e5e5e5"/><path d="m255.996094 204.675781c-48.277344 0-87.558594-39.277343-87.558594-87.558593 0-48.277344 39.28125-87.554688 87.558594-87.554688 48.28125 0 87.558594 39.277344 87.558594 87.554688 0 48.28125-39.277344 87.558593-87.558594 87.558593zm0-159.441406c-39.636719 0-71.882813 32.246094-71.882813 71.882813 0 39.640624 32.246094 71.886718 71.882813 71.886718 39.636718 0 71.886718-32.246094 71.886718-71.886718 0-39.636719-32.25-71.882813-71.886718-71.882813zm0 0" fill="#f99830"/><path d="m154.960938 225.101562-43.886719-16.582031c-31.761719-12-65.71875 11.472657-65.71875 45.425781v150.664063c0 26.816406 21.742187 48.558594 48.558593 48.558594h43.886719c26.820313 0 48.558594-21.742188 48.558594-48.558594v-134.082031c0-20.199219-12.5-38.289063-31.398437-45.425782zm0 0" fill="#87cdd8"/><path d="m357.039062 225.101562 43.886719-16.582031c31.761719-12 65.71875 11.472657 65.71875 45.425781v150.664063c0 26.816406-21.742187 48.558594-48.558593 48.558594h-43.886719c-26.820313 0-48.558594-21.742188-48.558594-48.558594v-134.082031c0-20.199219 12.5-38.289063 31.398437-45.425782zm0 0" fill="#87cdd8"/><path d="m137.800781 461.003906h-43.886719c-31.09375 0-56.394531-25.296875-56.394531-56.394531v-150.664063c0-18.519531 9.09375-35.859374 24.328125-46.390624 15.238282-10.53125 34.671875-12.910157 52-6.363282l43.886719 16.578125c21.808594 8.242188 36.464844 29.441407 36.464844 52.757813v134.082031c0 31.097656-25.300781 56.394531-56.398438 56.394531zm-44.019531-247.839844c-8.085938 0-16.046875 2.460938-23.019531 7.28125-11.164063 7.71875-17.570313 19.929688-17.570313 33.5v150.664063c0 22.453125 18.269532 40.71875 40.722656 40.71875h43.886719c22.453125 0 40.722657-18.265625 40.722657-40.71875v-134.082031c0-16.835938-10.582032-32.144532-26.332032-38.09375l-43.886718-16.582032c-4.761719-1.800781-9.667969-2.6875-14.523438-2.6875zm0 0" fill="#1876a9"/><path d="m317.800781 404.609375v-134.082031c0-23.316406 14.65625-44.519532 36.464844-52.757813l43.886719-16.582031c17.328125-6.542969 36.765625-4.164062 52 6.367188 15.234375 10.527343 24.328125 27.871093 24.328125 46.390624v150.664063c0 31.09375-25.300781 56.394531-56.394531 56.394531h-43.886719c-31.097657 0-56.398438-25.296875-56.398438-56.394531zm85.890625-188.757813-43.886718 16.578126c-15.746094 5.949218-26.328126 21.257812-26.328126 38.09375v134.085937c0 22.453125 18.265626 40.71875 40.722657 40.71875h43.886719c22.453124 0 40.71875-18.265625 40.71875-40.71875v-150.664063c0-13.570312-6.402344-25.78125-17.566407-33.496093-6.976562-4.824219-14.933593-7.285157-23.019531-7.285157-4.855469 0-9.761719.886719-14.527344 2.6875zm0 0" fill="#1876a9"/><g fill="#5bb0b7"><path d="m438.351562 273.757812h-84.421874c-4.328126 0-7.835938-3.507812-7.835938-7.835937s3.507812-7.835937 7.835938-7.835937h84.421874c4.328126 0 7.839844 3.507812 7.839844 7.835937s-3.511718 7.835937-7.839844 7.835937zm0 0"/><path d="m438.351562 309.414062h-84.421874c-4.328126 0-7.835938-3.507812-7.835938-7.835937s3.507812-7.839844 7.835938-7.839844h84.421874c4.328126 0 7.839844 3.511719 7.839844 7.839844s-3.511718 7.835937-7.839844 7.835937zm0 0"/><path d="m438.351562 345.070312h-84.421874c-4.328126 0-7.835938-3.511718-7.835938-7.839843s3.507812-7.835938 7.835938-7.835938h84.421874c4.328126 0 7.839844 3.507813 7.839844 7.835938s-3.511718 7.839843-7.839844 7.839843zm0 0"/><path d="m438.351562 380.722656h-84.421874c-4.328126 0-7.835938-3.507812-7.835938-7.835937s3.507812-7.835938 7.835938-7.835938h84.421874c4.328126 0 7.839844 3.507813 7.839844 7.835938s-3.511718 7.835937-7.839844 7.835937zm0 0"/><path d="m438.351562 416.378906h-84.421874c-4.328126 0-7.835938-3.511718-7.835938-7.839844 0-4.324218 3.507812-7.835937 7.835938-7.835937h84.421874c4.328126 0 7.839844 3.511719 7.839844 7.835937 0 4.328126-3.511718 7.839844-7.839844 7.839844zm0 0"/><path d="m158.070312 273.757812h-84.421874c-4.328126 0-7.839844-3.507812-7.839844-7.835937s3.511718-7.835937 7.839844-7.835937h84.421874c4.328126 0 7.835938 3.507812 7.835938 7.835937s-3.507812 7.835937-7.835938 7.835937zm0 0"/><path d="m158.070312 309.414062h-84.421874c-4.328126 0-7.839844-3.507812-7.839844-7.835937s3.511718-7.839844 7.839844-7.839844h84.421874c4.328126 0 7.835938 3.511719 7.835938 7.839844s-3.507812 7.835937-7.835938 7.835937zm0 0"/><path d="m158.070312 345.070312h-84.421874c-4.328126 0-7.839844-3.511718-7.839844-7.839843s3.511718-7.835938 7.839844-7.835938h84.421874c4.328126 0 7.835938 3.507813 7.835938 7.835938s-3.507812 7.839843-7.835938 7.839843zm0 0"/><path d="m158.070312 380.722656h-84.421874c-4.328126 0-7.839844-3.507812-7.839844-7.835937s3.511718-7.835938 7.839844-7.835938h84.421874c4.328126 0 7.835938 3.507813 7.835938 7.835938s-3.507812 7.835937-7.835938 7.835937zm0 0"/><path d="m158.070312 416.378906h-84.421874c-4.328126 0-7.839844-3.511718-7.839844-7.839844 0-4.324218 3.511718-7.835937 7.839844-7.835937h84.421874c4.328126 0 7.835938 3.511719 7.835938 7.835937 0 4.328126-3.507812 7.839844-7.835938 7.839844zm0 0"/></g><path d="m318.28125 105.53125c0-9.867188-3.886719-17.871094-8.679688-17.871094-4.792968 0-8.679687 8.003906-8.679687 17.871094 0 9.871094 3.886719 17.875 8.679687 17.875 4.792969 0 8.679688-8.003906 8.679688-17.875zm0 0" fill="#fff"/></svg>