<svg height="511pt" viewBox="0 -10 511.99987 511" width="511pt" xmlns="http://www.w3.org/2000/svg"><path d="m361.984375 377.636719h-46.054687l-.550782.132812-.050781 89.878907h46.65625c11.050781-.011719 20-8.972657 20-20.011719v-50.085938c0-11.042969-8.949219-20.003906-20-19.914062zm0 0" fill="#e6ffff"/><path d="m315.980469 382.539062v80.109376c-.066407 11.128906-9.070313 20-20.054688 20-33.730469 0-104.640625 0-183.078125 0-9.261718 0-17.292968-6.320313-19.453125-15.320313l-72.496093-302.613281 173.617187-46.515625 56.886719 244.4375h44.523437c11.027344 0 19.988281 8.832031 20.054688 19.902343zm0 0" fill="#8cf2f2"/><path d="m184.746094 76.226562 9.769531 41.972657-173.617187 46.515625-10.320313-43.0625c-2.53125-10.542969 3.800781-21.171875 14.269531-23.972656 17.992188-4.824219 120.386719-32.261719 135.246094-36.246094 10.910156-2.917969 22.085938 3.777344 24.652344 14.792968zm0 0" fill="#e6ffff"/><path d="m140.699219 25.3125 10.363281 38.542969-116.023438 31.09375-10.359374-38.683594c-2.792969-10.367187 3.09375-21.4375 14.148437-24.394531l77.390625-20.691406c10.660156-2.851563 21.613281 3.480468 24.480469 14.132812zm0 0" fill="#8cf2f2"/><path d="m502 372.636719c-5.523438 0-10.003906 4.480469-10.003906 10.003906 0 5.519531 4.480468 10 10.003906 10 5.519531 0 10-4.480469 10-10 0-5.523437-4.480469-10.003906-10-10.003906zm0 0"/><path d="m502 412.640625c-5.523438 0-10.003906 4.480469-10.003906 10.003906 0 5.519531 4.480468 10 10.003906 10 5.519531 0 10-4.480469 10-10 0-5.523437-4.480469-10.003906-10-10.003906zm0 0"/><path d="m502 452.644531c-5.523438 0-10.003906 4.480469-10.003906 10.003907 0 5.519531 4.480468 10 10.003906 10 5.519531 0 10-4.480469 10-10 0-5.523438-4.480469-10.003907-10-10.003907zm0 0"/><path d="m461.996094 392.640625c5.519531 0 10-4.480469 10-10 0-5.523437-4.480469-10.003906-10-10.003906-5.523438 0-10.003906 4.480469-10.003906 10.003906 0 5.519531 4.480468 10 10.003906 10zm0 0"/><path d="m461.996094 432.644531c5.519531 0 10-4.480469 10-10 0-5.523437-4.480469-10.003906-10-10.003906-5.523438 0-10.003906 4.480469-10.003906 10.003906 0 5.519531 4.480468 10 10.003906 10zm0 0"/><path d="m461.996094 472.648438c5.519531 0 10-4.480469 10-10 0-5.523438-4.480469-10.003907-10-10.003907-5.523438 0-10.003906 4.480469-10.003906 10.003907 0 5.519531 4.480468 10 10.003906 10zm0 0"/><path d="m421.992188 392.640625c5.519531 0 10-4.480469 10-10 0-5.523437-4.480469-10.003906-10-10.003906-5.523438 0-10.003907 4.480469-10.003907 10.003906 0 5.519531 4.480469 10 10.003907 10zm0 0"/><path d="m421.992188 432.644531c5.519531 0 10-4.480469 10-10 0-5.523437-4.480469-10.003906-10-10.003906-5.523438 0-10.003907 4.480469-10.003907 10.003906 0 5.519531 4.480469 10 10.003907 10zm0 0"/><path d="m421.992188 472.648438c5.519531 0 10-4.480469 10-10 0-5.523438-4.480469-10.003907-10-10.003907-5.523438 0-10.003907 4.480469-10.003907 10.003907 0 5.519531 4.480469 10 10.003907 10zm0 0"/><path d="m135.960938 432.644531c0 11.027344 8.972656 20 20 20 11.03125 0 20.003906-8.972656 20.003906-20 0-11.03125-8.972656-20.003906-20.003906-20.003906-11.027344 0-20 8.972656-20 20.003906zm0 0"/><path d="m235.972656 432.644531c0-11.03125-8.976562-20.003906-20.003906-20.003906s-20.003906 8.972656-20.003906 20.003906c0 11.027344 8.976562 20 20.003906 20s20.003906-8.972656 20.003906-20zm0 0"/><path d="m215.96875 482.648438c0 5.523437-4.476562 10-10 10s-10.003906-4.476563-10.003906-10c0-5.523438 4.480468-10 10.003906-10s10 4.476562 10 10zm0 0"/><path d="m.851562 123.980469c1.742188 7.300781 82.789063 345.546875 82.820313 345.679687 3.246094 13.539063 15.246094 22.992188 29.175781 22.992188h48.113282c5.523437 0 10.003906-4.480469 10.003906-10.003906 0-5.523438-4.480469-10-10.003906-10h-48.113282c-4.644531 0-8.644531-3.148438-9.726562-7.648438l-70.230469-293.144531 154.226563-41.324219 54.542968 234.371094c1.054688 4.53125 5.089844 7.734375 9.742188 7.734375h44.523437c5.648438 0 10.015625 4.542969 10.050781 9.902343v80.050782c-.03125 5.671875-4.597656 10.058594-10.050781 10.058594h-44.953125c-5.523437 0-10.003906 4.476562-10.003906 10 0 5.523437 4.480469 10 10.003906 10h44.953125c10.914063 0 20.71875-5.898438 25.992188-15h40.074219c16.539062-.015626 29.992187-13.476563 29.992187-30.011719v-50.085938c0-16.667969-13.496094-29.914062-29.753906-29.914062-.082031 0-40.28125 0-40.28125 0-5.25-9.109375-15.046875-15-26.023438-15h-36.582031l-64.859375-278.679688c-3.765625-16.167969-20.042969-26.316406-36.355469-22.332031l-7.773437-28.917969c-4.296875-15.949219-20.769531-25.449219-36.722657-21.1875l-77.390624 20.691407c-16.398438 4.390624-25.460938 20.933593-21.222657 36.640624l7.773438 29.023438-.527344.140625c-15.835937 4.234375-25.238281 20.035156-21.414063 35.964844zm361.214844 263.660156c5.796875.023437 9.917969 4.652344 9.917969 9.910156v50.085938c0 5.515625-4.488281 10.007812-10 10.011719h-36.003906v-70.019532zm-187.0625-309.148437 7.578125 32.550781-154.351562 41.355469-7.929688-33.082032c-1.273437-5.304687 1.859375-10.566406 7.136719-11.976562 14.148438-3.792969 117.542969-31.5 135.242188-36.242188 5.4375-1.460937 11.039062 1.882813 12.324218 7.394532zm-133.589844-36.957032 77.386719-20.695312c5.304688-1.417969 10.808594 1.746094 12.242188 7.066406l7.761719 28.878906-96.691407 25.914063-7.777343-29.039063c-1.363282-5.058594 1.394531-10.605468 7.078124-12.125zm0 0"/></svg>