<svg id="Layer_1" height="512" viewBox="0 0 512 512" width="512" xmlns="http://www.w3.org/2000/svg" data-name="Layer 1"><g id="_Group_3" data-name=" Group 3"><path d="m359.85 68.36a12.122 12.122 0 1 1 -13.69 20.01 142.126 142.126 0 0 0 -82.88-24.74q-5.385.1-10.77.62l-20.76 1.99v.01l-56.54 5.43-25.91-34.54a12.125 12.125 0 1 1 19.4-14.55l17.74 23.65 63.75-6.13a166.283 166.283 0 0 1 109.66 28.25z" fill="#00efd1"/><path d="m344.51 288.13v181.88a24.241 24.241 0 0 1 -24.25 24.25h-145.5a24.247 24.247 0 0 1 -24.25-24.25v-181.88a97.059 97.059 0 0 1 60.63-89.94v-42.22h72.75v42.22a97.021 97.021 0 0 1 60.62 89.94z" fill="#00acea"/><path d="m197.8 305.71h99.43v151.17h-99.43z" fill="#fedb41"/><path d="m274.79 108.68v47.29h-54.56v-47.29h11.52 31.53z" fill="#00efd1"/><path d="m263.28 63.81v44.87h-31.53v-42.44l20.76-1.99q5.385-.51 10.77-.62z" fill="#fedb41"/></g></svg>