<svg height="512pt" viewBox="-34 0 511 512" width="512pt" xmlns="http://www.w3.org/2000/svg"><path d="m294.574219 512h-171.300781c-6.925782 0-12.542969-5.617188-12.542969-12.542969v-44.703125h196.386719v44.703125c0 6.925781-5.613282 12.542969-12.542969 12.542969zm0 0" fill="#575f64"/><path d="m307.121094 454.753906v44.699219c0 6.933594-5.621094 12.546875-12.546875 12.546875h-27.875c6.921875 0 12.542969-5.613281 12.542969-12.546875v-44.699219zm0 0" fill="#474f54"/><path d="m241.632812 172.324219v-120.464844h-65.417968v120.464844c0 18.464843-11.171875 34.945312-28.136719 42.246093-54.816406 23.589844-93.199219 78.082032-93.199219 141.550782 0 47.65625 21.640625 90.257812 55.632813 118.515625h198.09375c33.257812-28.257813 54.363281-71.457031 54.363281-118.515625 0-63.46875-38.382812-117.960938-93.199219-141.550782-16.964843-7.300781-28.136719-23.78125-28.136719-42.246093zm0 0" fill="#efe2dd"/><path d="m241.632812 172.324219v-135.230469h-65.417968v135.230469c0 18.464843-11.171875 34.945312-28.136719 42.246093-54.816406 23.589844-93.199219 78.082032-93.199219 141.550782 0 47.65625 21.640625 90.257812 55.632813 118.515625h198.09375c33.257812-28.257813 54.363281-71.457031 54.363281-118.515625 0-63.46875-38.382812-117.960938-93.199219-141.550782-16.964843-7.300781-28.136719-23.78125-28.136719-42.246093zm0 0" fill="#efe2dd"/><path d="m362.96875 356.121094c0 47.066406-21.097656 90.261718-54.363281 118.511718h-29.636719c31.289062-27.753906 56.300781-69.230468 56.300781-114.3125 0-28.523437-6.46875-57.273437-20.710937-82.128906-14.128906-24.660156-38.53125-38.773437-62.09375-53.113281-15.941406-9.703125-29.003906-25.667969-29.003906-45.234375 0-.023438 0-142.75 0-142.75h18.167968v135.226562c0 18.46875 11.171875 34.945313 28.136719 42.25 54.824219 23.585938 93.203125 78.078126 93.203125 141.550782zm0 0" fill="#e1d3ce"/><path d="m245.75 51.859375h-73.652344c-4.886718 0-8.851562-3.960937-8.851562-8.847656v-34.164063c0-4.886718 3.964844-8.847656 8.851562-8.847656h73.652344c4.886719 0 8.847656 3.960938 8.847656 8.847656v34.164063c0 4.886719-3.960937 8.847656-8.847656 8.847656zm0 0" fill="#575f64"/><path d="m245.75 51.859375h-14.863281v-51.859375h14.863281c4.886719 0 8.847656 3.960938 8.847656 8.847656v34.164063c0 4.886719-3.960937 8.847656-8.847656 8.847656zm0 0" fill="#474f54"/><path d="m294.222656 349.980469c0 47.109375-38.191406 85.300781-85.296875 85.300781-47.109375 0-85.300781-38.191406-85.300781-85.300781 0-47.105469 38.191406-85.296875 85.300781-85.296875 47.105469 0 85.296875 38.191406 85.296875 85.296875zm0 0" fill="#ffc143"/><path d="m294.226562 349.980469c0 47.109375-38.195312 85.300781-85.300781 85.300781-11.0625 0-21.636719-2.105469-31.34375-5.953125.390625.023437.792969.023437 1.195313.023437 47.109375 0 85.292968-38.195312 85.292968-85.304687 0-36.023437-22.339843-66.84375-53.917968-79.347656 46.539062.652343 84.074218 38.585937 84.074218 85.28125zm0 0" fill="#ffb509"/><path d="m331.847656 120.050781c-4.179687 9.175781-15.9375 30.550781-37.132812 37.238281-1.796875.566407-1.796875 3.136719 0 3.703126 21.195312 6.6875 32.953125 28.0625 37.132812 37.238281.695313 1.519531 2.851563 1.519531 3.546875 0 4.179688-9.175781 15.9375-30.550781 37.132813-37.238281 1.796875-.566407 1.796875-3.136719 0-3.703126-21.195313-6.6875-32.953125-28.0625-37.132813-37.238281-.695312-1.519531-2.851562-1.519531-3.546875 0zm0 0" fill="#ffc143"/><path d="m372.519531 160.992188c-21.1875 6.683593-32.949219 28.058593-37.125 37.234374-.695312 1.519532-2.851562 1.519532-3.542969 0-1.355468-2.976562-3.515624-7.234374-6.53125-11.859374 4.8125-9.847657 16.097657-28.363282 35.285157-34.855469 3.582031 2.402343 7.554687 4.402343 11.917969 5.78125 1.804687.566406 1.804687 3.132812-.003907 3.699219zm0 0" fill="#ffb509"/><path d="m28.289062 196.203125c-3.019531 6.628906-11.511718 22.0625-26.816406 26.890625-1.296875.410156-1.296875 2.265625 0 2.675781 15.304688 4.828125 23.796875 20.265625 26.816406 26.890625.5 1.097656 2.058594 1.097656 2.558594 0 3.019532-6.625 11.511719-22.0625 26.816406-26.890625 1.300782-.410156 1.300782-2.265625 0-2.675781-15.304687-4.828125-23.796874-20.265625-26.816406-26.890625-.5-1.097656-2.058594-1.097656-2.558594 0zm0 0" fill="#ffc143"/><path d="m57.664062 225.769531c-15.304687 4.828125-23.796874 20.265625-26.8125 26.890625-.503906 1.097656-2.058593 1.097656-2.558593 0-.980469-2.148437-2.539063-5.222656-4.714844-8.566406 3.472656-7.109375 11.621094-20.480469 25.476563-25.167969 2.589843 1.734375 5.457031 3.179688 8.609374 4.171875 1.300782.410156 1.300782 2.261719 0 2.671875zm0 0" fill="#ffb509"/><path d="m413.582031 222.195312c-3.019531 6.625-11.507812 22.0625-26.816406 26.890626-1.296875.410156-1.296875 2.265624 0 2.675781 15.308594 4.828125 23.796875 20.265625 26.816406 26.890625.5 1.097656 2.0625 1.097656 2.5625 0 3.019531-6.625 11.507813-22.0625 26.816407-26.890625 1.296874-.410157 1.296874-2.265625 0-2.675781-15.308594-4.828126-23.796876-20.265626-26.816407-26.890626-.503906-1.097656-2.0625-1.097656-2.5625 0zm0 0" fill="#ffc143"/><path d="m442.957031 251.761719c-15.304687 4.828125-23.796875 20.265625-26.8125 26.890625-.5 1.097656-2.058593 1.097656-2.558593 0-.980469-2.152344-2.539063-5.222656-4.714844-8.566406 3.472656-7.109376 11.621094-20.480469 25.480468-25.167969 2.585938 1.734375 5.453126 3.179687 8.605469 4.171875 1.300781.410156 1.300781 2.261718 0 2.671875zm0 0" fill="#ffb509"/></svg>